<?xml version="1.0" standalone="no"?>
<!DOCTYPE svg PUBLIC "-//W3C//DTD SVG 20010904//EN"
 "http://www.w3.org/TR/2001/REC-SVG-20010904/DTD/svg10.dtd">
<svg version="1.0" xmlns="http://www.w3.org/2000/svg"
 width="180.000000pt" height="180.000000pt" viewBox="0 0 180.000000 180.000000"
 preserveAspectRatio="xMidYMid meet">
<metadata>
Created by potrace 1.11, written by Peter Selinger 2001-2013
</metadata>
<g transform="translate(0.000000,180.000000) scale(0.100000,-0.100000)"
fill="#000000" stroke="none">
<path d="M717 1794 c-3 -3 -3 -12 0 -20 4 -10 -4 -14 -29 -14 -19 0 -38 -3
-42 -7 -4 -5 -11 -8 -14 -8 -18 -2 -92 -31 -129 -52 -24 -13 -43 -20 -43 -16
0 4 -4 3 -8 -3 -4 -6 -29 -26 -57 -44 -72 -49 -108 -82 -186 -170 -118 -133
-204 -374 -203 -565 2 -192 71 -391 189 -544 50 -66 156 -167 191 -183 13 -6
24 -15 24 -19 0 -12 160 -86 237 -109 40 -13 70 -27 67 -32 -3 -5 57 -8 145
-7 83 0 153 4 155 8 3 4 24 8 47 10 23 1 50 6 60 12 10 5 29 10 43 11 15 1 26
6 26 10 0 4 8 8 18 8 21 1 165 72 182 90 3 3 21 17 40 30 91 63 191 177 246
280 16 30 31 57 34 60 4 4 38 98 56 159 3 11 7 11 19 1 13 -11 15 5 15 134 0
107 -3 146 -12 146 -9 0 -9 3 -1 11 7 7 8 18 3 28 -5 9 -14 45 -20 81 -26 146
-115 314 -229 434 -101 105 -263 204 -387 236 -42 11 -50 16 -46 32 4 17 -6
18 -190 18 -107 0 -197 -3 -201 -6z"/>
</g>
</svg>
